<svg width="124" height="124" viewBox="0 0 124 124" fill="none" xmlns="http://www.w3.org/2000/svg">
<path fill-rule="evenodd" clip-rule="evenodd" d="M55.8886 22.2176H69.3243L69.3213 26.6323H55.8886V22.2176ZM67.6386 80.8866C67.7695 72.4575 73.7365 66.3252 82.0543 65.9224C80.9118 72.9628 74.4806 79.4946 67.6386 80.8866V80.8866ZM61.7014 60.2061C56.4457 61.7079 58.8382 69.0606 63.7616 67.7043C68.7275 66.3361 66.605 58.805 61.7014 60.2061ZM43.3053 65.9224C51.6325 66.3261 57.5809 72.4649 57.7199 80.8866C50.9097 79.5126 44.4284 72.9641 43.3053 65.9224V65.9224ZM61.6114 58.1956C65.177 57.5282 67.998 59.9726 68.5273 62.8393C69.1966 66.4647 66.6927 69.1661 63.8235 69.695C55.9946 71.1381 53.8534 59.6478 61.6114 58.1956H61.6114ZM43.8096 56.135C44.774 52.1948 48.0741 48.3296 50.4928 46.5758C63.5159 37.132 78.9349 45.5065 81.5489 56.1374L74.9857 56.138C72.1853 51.2134 69.3742 52.2297 62.6792 52.2297C56.0019 52.2296 53.169 51.2208 50.3727 56.1383L43.8096 56.135ZM34.9432 63.465C35.6698 78.0703 48.3867 90.128 64.1771 89.3124C78.9953 88.5472 91.257 76.1248 90.4063 60.5242C89.6104 45.9305 76.9811 33.8991 61.1884 34.685C46.3395 35.4239 34.1695 47.9156 34.9432 63.465H34.9432ZM38.1252 97.1695H42.4648H82.7511H87.2305H100.623H100.662V66.858C100.665 60.7956 100.666 54.7333 100.662 48.6713C100.658 40.8287 97.932 34.5523 93.6331 31.3475C87.3585 26.6698 83.244 26.6323 73.7948 26.6323V22.2176C85.4902 22.2176 84.217 16.9443 81.8979 7.61201C79.5583 -1.80315 75.7636 0.178724 62.6065 0.178724C49.6747 0.178724 45.5888 -1.82855 43.3095 7.6108C41.0565 16.9408 39.6639 22.2176 51.418 22.2176V26.6323C41.9519 26.6323 37.8639 26.6719 31.5828 31.351C27.2671 34.5662 24.5535 40.814 24.5508 48.6713C24.5454 64.5845 24.558 80.4984 24.5584 96.4117V97.1694H38.1252V97.1695ZM21.931 102.027C12.5269 104.701 14.76 115.42 20.2222 120.184C25.9703 125.198 36.8465 123.623 45.8193 123.623C55.6724 123.623 96.7696 125.156 102.414 122.038C107.928 118.992 113.679 109.504 106.499 103.542C102.452 100.181 85.8528 101.584 79.3937 101.584C70.121 101.584 27.3273 100.493 21.931 102.027V102.027Z" fill="black"/>
</svg>
