<svg width="258" height="258" viewBox="0 0 258 258" fill="none" xmlns="http://www.w3.org/2000/svg">
<g clip-path="url(#clip0_157_126)">
<path fill-rule="evenodd" clip-rule="evenodd" d="M53.1771 19.4965C41.4787 22.0803 35.5271 17.8194 22.8017 24.178C-5.99496 38.564 0.66954 73.1485 0.66954 104.332C0.66954 127.09 0.66954 149.848 0.66954 172.605C0.66954 190.501 -2.11098 222.398 5.52589 236.022C16.8965 256.302 33.6315 256.944 52.6718 256.939H188.691C212.901 256.939 230.338 259.714 244.899 245.095C266.318 223.594 253.831 197.168 240.231 209.271C233.892 214.911 239.322 223.851 229.278 232.403C222.275 238.365 210.626 236.866 199.695 236.866C154.355 236.866 109.017 236.866 63.6764 236.866C39.2772 236.866 20.6549 239.917 20.6494 211.773L20.6658 75.2161C20.6658 63.627 19.128 53.7832 26.0711 46.4959C31.7906 40.4924 42.5276 38.2226 53.1798 40.5743C53.1798 50.2051 52.7374 60.4832 63.6163 60.0598C73.7251 59.6665 73.1734 50.033 73.1734 40.5743H118.189C118.189 50.2051 117.746 60.4832 128.625 60.0598C138.734 59.6665 138.182 50.033 138.182 40.1346L183.698 40.0745C183.698 45.5263 181.45 60.098 193.694 60.098C205.939 60.098 203.691 45.5263 203.691 40.0745C215.807 40.0745 233.752 38.4084 236.416 57.3394C237.598 65.741 236.741 142.342 236.7 157.55C236.678 165.367 235.929 173.493 243.359 176.036C250.457 178.464 256.152 173.22 256.669 166.615C257.745 152.849 256.682 85.9612 256.704 66.1835C256.723 48.6127 252.23 38.0451 242.788 29.9302C230.647 19.4937 222.259 20.0045 203.691 20.0045C203.691 15.6589 204.459 9.61715 202.79 5.85607C199.346 -1.9119 188.04 -1.9119 184.596 5.85607C182.927 9.61715 183.698 15.6589 183.698 20.0345L138.182 19.5047C138.182 9.87389 138.625 -0.404194 127.746 0.0191662C117.637 0.412481 118.189 10.046 118.183 19.9717L73.1706 19.5019C73.1706 9.87116 73.6131 -0.406925 62.7341 0.0164348C52.6254 0.40975 53.1771 10.0432 53.1771 19.5019V19.4965ZM160.661 182.654V159.525H183.703L183.711 182.648L160.661 182.657V182.654ZM96.846 150.514C98.2062 162.456 118.082 161.098 116.514 147.695C115.086 135.5 95.2919 136.871 96.846 150.514ZM140.698 108.345C143.585 119.278 163.081 116.427 159.714 102.497C156.999 91.2683 136.978 94.2646 140.698 108.345ZM53.6851 108.345C56.5722 119.278 76.0713 116.427 72.7008 102.497C69.9859 91.2683 49.965 94.2646 53.6851 108.345ZM53.6851 195.693C56.5722 206.627 76.0713 203.776 72.7008 189.846C69.9859 178.617 49.965 181.613 53.6851 195.693ZM183.796 106.337C184.148 111.48 189.016 115.711 194.571 115.28C199.802 114.873 204.038 110.136 203.598 104.45C202.623 91.8419 182.884 93.0792 183.796 106.337V106.337ZM96.7832 106.337C97.1383 111.48 102.003 115.711 107.558 115.28C112.789 114.873 117.025 110.136 116.586 104.45C115.61 91.8419 95.8709 93.0792 96.7832 106.337V106.337ZM96.7832 193.686C97.1383 198.829 102.003 203.06 107.558 202.628C112.789 202.221 117.025 197.485 116.586 191.799C115.61 179.191 95.8709 180.428 96.7832 193.686ZM53.8599 152.522C57.2496 163.496 76.5138 159.801 72.567 145.764C69.3385 134.282 49.4707 138.31 53.8599 152.522V152.522ZM140.643 186.658C142.05 194.563 148.87 201.069 156.936 202.355C161.688 203.112 182.717 203.115 187.347 202.257C195.727 200.703 201.678 194.729 203.224 186.317C204.079 181.668 204.076 160.557 203.322 155.786C202.025 147.586 195.584 140.908 187.625 139.43C182.955 138.564 161.489 138.586 156.712 139.37C148.643 140.695 141.894 147.471 140.578 155.564C139.783 160.459 139.777 181.829 140.638 186.658H140.643Z" fill="black"/>
</g>
<defs>
<clipPath id="clip0_157_126">
<rect width="257.15" height="257.149" fill="white"/>
</clipPath>
</defs>
</svg>
