<svg width="124" height="124" viewBox="0 0 124 124" fill="none" xmlns="http://www.w3.org/2000/svg">
<path fill-rule="evenodd" clip-rule="evenodd" d="M55.885 22.218H69.3196L69.3167 26.6327H55.885V22.218V22.218ZM42.4626 48.1233V61.8982H82.7452L82.7423 48.1233L82.3208 44.7609L78.8466 44.1567L46.5163 44.2685C42.9149 44.2685 42.4628 44.7137 42.4628 48.1233H42.4626ZM42.4626 97.1695H82.7452L82.7423 66.3129H42.4597L42.4626 97.1695V97.1695ZM21.9304 102.027C12.5271 104.701 14.7601 115.42 20.2216 120.184C25.9693 125.198 36.8444 123.623 45.8164 123.623C55.6686 123.623 96.7622 125.156 102.406 122.038C107.92 118.992 113.67 109.504 106.491 103.542C102.444 100.181 85.8465 101.584 79.3879 101.584C70.1161 101.584 27.3261 100.493 21.9304 102.027V102.027ZM51.4148 22.218V26.6327C41.9497 26.6327 37.8618 26.6724 31.5814 31.3514C27.2661 34.5666 24.5528 40.8143 24.5499 48.6715C24.5444 64.8373 24.5576 81.0036 24.5576 97.1697H38.1232C37.9803 83.5765 37.9803 69.9834 37.9803 56.3902C37.9803 37.5877 36.8447 39.8538 62.6022 39.8538C88.3386 39.8538 87.2244 37.576 87.2241 56.3902C87.2241 69.9834 87.2241 83.5765 87.2241 97.1697H100.615C100.647 81.0042 100.664 64.8373 100.654 48.6715C100.65 40.8289 97.9246 34.5526 93.6261 31.3477C87.3521 26.6701 83.2381 26.6325 73.7895 26.6325V22.2178C85.484 22.2178 84.2107 16.9444 81.8919 7.61212C79.5525 -1.80288 75.7582 0.178724 62.6022 0.178724C49.6716 0.178724 45.586 -1.82855 43.307 7.61082C41.0542 16.9408 39.6617 22.2175 51.4148 22.2175V22.218Z" fill="#0A0A0A"/>
</svg>
