<svg width="258" height="258" viewBox="0 0 258 258" fill="none" xmlns="http://www.w3.org/2000/svg">
<path fill-rule="evenodd" clip-rule="evenodd" d="M205.013 216.91C212.837 212.475 217.234 223.572 210.627 226.709C203.667 230.013 199.32 220.137 205.013 216.91ZM201.184 22.218C201.188 15.403 201.376 10.1937 208.365 10.2714C214.994 10.3449 215.274 15.7274 215.278 22.12L211.374 22.218H201.183H201.184ZM121.796 22.218C121.8 15.4326 122.02 10.2714 128.93 10.274C135.725 10.2765 135.886 15.7831 135.891 22.1673L131.958 22.218H121.796V22.218ZM42.4167 22.218C42.4201 15.6919 42.589 10.2393 49.4623 10.2393C56.3254 10.2393 56.5037 15.6978 56.502 22.218H42.4175H42.4167ZM32.3707 22.218C-4.46639 22.218 0.189566 24.6609 0.189566 69.4789V230.386C0.185343 238.533 -2.43152 255.348 13.3719 257.329C19.9546 258.154 47.495 257.96 52.8132 256.706C54.718 252.44 54.7391 252.587 52.8428 248.286C43.3653 246.063 19.0355 249.662 12.2518 246.38C7.97343 241.279 10.2355 218.24 10.2355 210.273V93.6102H195.284C201.109 93.6102 217.273 96.5059 217.246 88.5919C217.219 80.7936 202.039 83.5634 196.289 83.5642H10.2355C10.2355 24.4919 4.79991 32.264 32.3707 32.264C32.3707 46.5225 30.7937 60.9196 43.4346 65.4353C56.9598 70.2662 68.587 58.8551 65.7877 45.9245C62.1623 44.2663 62.5289 44.2739 58.0968 45.1465C56.0712 49.1276 55.2451 61.0623 45.4931 55.3868C40.4317 52.4413 42.4167 39.0909 42.4167 32.264L111.754 32.2691C111.754 46.596 110.183 61.0277 122.852 65.459C136.327 70.1732 147.971 58.7892 145.169 45.9971C141.558 44.2739 142.006 44.2756 137.48 45.1085C135.052 49.7391 134.565 60.8697 124.894 55.4358C119.791 52.568 121.797 39.0529 121.797 32.2649L191.143 32.275C191.143 43.7139 188.147 61.3039 203.018 65.736C216.845 69.8565 229.205 56.7974 223.742 45.2242C210.715 42.3413 219.025 57.5568 207.49 56.3084C198.517 55.337 201.185 40.1484 201.185 32.2649C255.234 32.2649 247.586 26.3722 247.585 57.4124C247.585 86.0882 249.037 242.229 246.477 245.474C241.281 249.765 218.393 247.49 210.371 247.49L95.6966 247.459C90.8861 247.416 81.7634 247.41 85.3213 254.766C87.5851 259.446 97.1647 257.54 101.758 257.536H217.41C227.341 257.536 245.414 259.898 252.052 253.963C260.143 246.729 257.631 234.186 257.631 221.337V67.4694C257.631 59.6686 258.782 36.0381 256.163 30.703C251.082 20.3512 237.78 22.2197 225.322 22.2197C225.313 -4.50318 203.75 -3.33158 195.286 6.10539C191.251 10.6043 191.145 14.7821 191.144 22.0947L145.934 22.2273C145.931 10.9278 142.55 0.227976 128.909 0.172225C122.952 0.147729 118.894 2.79586 115.898 6.16705C111.871 10.698 111.759 14.832 111.756 22.1555L66.5547 22.2239C66.5505 9.43181 62.4773 0.173915 49.4623 0.172225C36.4776 0.170536 32.3767 9.42674 32.3724 22.2205L32.3707 22.218ZM230.471 84.2848C224.113 87.5876 229.024 95.8082 234.819 92.9708C240.334 90.2703 236.371 81.2194 230.471 84.2848V84.2848ZM64.6465 253.517C65.4853 258.884 75.3192 259.245 74.3799 251.677C73.5682 245.134 63.5678 246.617 64.6465 253.517ZM29.258 157.06C26.0854 162.308 27.3178 173.423 27.2891 181.17C27.2434 193.55 32.9502 190.522 44.4338 190.522C49.5772 190.522 67.6866 191.718 60.3056 182.409C57.6525 179.063 42.8745 180.478 37.3882 180.478C37.3882 172.87 38.5852 162.199 35.4682 156.746L29.258 157.058V157.06ZM197.39 136.859C201.594 140.362 226.27 139.327 228.445 137.758C232.672 134.709 230.392 129.344 224.499 128.81C219.445 128.351 211.692 128.819 206.34 128.819C206.34 123.497 209.052 98.2544 198.417 105.696C194.96 108.115 195.534 133.044 197.39 136.859ZM141.073 136.859C145.277 140.362 169.953 139.327 172.128 137.758C176.355 134.709 174.075 129.344 168.182 128.81C163.128 128.351 155.374 128.819 150.022 128.819C150.022 123.497 152.735 98.2544 142.099 105.696C138.643 108.115 139.216 133.044 141.073 136.859V136.859ZM84.7553 136.859C88.9585 140.362 113.635 139.327 115.811 137.758C120.037 134.709 117.758 129.344 111.864 128.81C106.81 128.351 99.0568 128.819 93.7049 128.819C93.7049 123.497 96.4172 98.2544 85.7816 105.696C82.3251 108.115 82.8978 133.044 84.7553 136.859V136.859ZM28.4378 136.859C32.641 140.362 57.318 139.327 59.493 137.758C63.7199 134.709 61.4401 129.344 55.5466 128.81C50.4928 128.351 42.7394 128.819 37.3874 128.819C37.3874 123.497 40.0997 98.2544 29.4641 105.696C26.0077 108.115 26.5804 133.044 28.4378 136.859V136.859ZM125.617 216.947C133.42 212.337 137.886 223.645 131.206 226.739C124.388 229.897 119.907 220.321 125.617 216.947ZM169.331 193.472C229.62 193.472 227.639 188.903 227.639 216.616C219.783 216.384 223.058 211.62 215.947 207.744C211.224 205.17 204.846 205.089 200.068 208.03C197.874 209.38 196.629 211.025 195.114 213.102C192.217 217.073 194.514 216.49 188.352 216.69C182.198 216.888 175.253 216.581 168.953 216.581L169.332 193.471L169.331 193.472ZM104.937 216.368C104.937 200.574 103.169 193.378 120.832 193.453C133.284 193.506 146.321 193.07 158.887 193.569L158.944 216.52L145 216.581C139.778 212.975 140.654 205.888 128.907 205.853C121.206 205.83 115.759 210.682 114.057 216.621L104.937 216.368V216.368ZM168.978 160.588C187.131 160.588 188.328 158.807 192.806 169.516C194.748 174.16 197.036 178.694 198.373 183.409L168.989 183.429L168.978 160.588ZM129.56 183.429C130.707 178.842 133.631 172.989 135.487 168.581C139.333 159.448 142.565 159.797 158.942 160.783V183.395L129.56 183.429V183.429ZM99.0281 192.382C92.4488 192.514 73.8731 189.707 71.6828 195.583C67.9282 205.653 87.9964 202.491 94.7979 202.489L94.89 216.615C85.4454 216.615 75.9806 216.675 66.5386 216.603C62.4571 216.572 56.8838 215.675 54.9629 218.998C52.2523 223.689 55.2856 226.15 59.4364 226.632C73.216 228.232 98.572 226.606 113.624 226.629C116.746 232.279 120.247 237.443 128.899 237.354C137.24 237.269 141.015 232.034 143.984 226.624L193.032 226.641C200.388 240.53 213.8 242.16 223.435 226.657C228.064 226.657 232.949 226.785 236.47 225.323C239.165 218.176 238.394 199.371 234.608 193.054C229.582 184.667 222.188 183.726 209.284 183.338C197.443 146.071 191.591 150.539 164.106 150.539C151.625 150.539 137.104 148.597 130.517 156.568C128.159 159.422 120.156 178.196 118.651 183.073C108.685 184.443 102.53 185.473 99.0281 192.378V192.382Z" fill="#002355"/>
</svg>
