<svg width="258" height="258" viewBox="0 0 258 258" fill="none" xmlns="http://www.w3.org/2000/svg">
<path fill-rule="evenodd" clip-rule="evenodd" d="M146.039 240.721C165.865 237.214 190.151 224.039 202.356 208.596C254.578 142.525 213.515 59.9656 144.246 48.6738C127.433 45.9321 108.42 50.2348 104.659 43.9557C100.598 37.1706 107.76 32.8503 110.263 30.0356C115.192 24.4841 113.178 18.5223 107.232 15.9039C100.774 13.0615 96.1992 19.4387 93.4222 22.2358L71.307 44.3535C57.193 58.4273 61.9866 57.7651 84.993 80.769C88.8425 84.616 92.3899 87.8814 96.0305 91.8467C97.8961 93.881 99.0265 96.0588 102.518 96.6555C106.824 97.3932 120.981 93.8005 106.829 79.0343C103.128 75.1748 102.028 67.8081 108.297 65.3106C114.397 62.881 141.97 65.4239 148.773 67.2139C224.381 87.1161 229.452 192.858 156.47 220.003C103.692 239.636 59.0057 202.856 49.9597 160.992C48.8872 156.032 48.7437 144.413 47.5478 141.326C44.4611 133.35 20.284 128.416 36.4323 176.559C43.8821 198.772 59.1995 216.101 75.0357 226.413C93.0042 238.115 119.498 245.417 146.041 240.724L146.039 240.721ZM135.719 80.5701C132.71 78.9336 130.404 79.2912 126.099 79.3667L127.7 82.4005C127.751 97.0281 125.177 105.571 113.11 110.274C107.428 112.489 100.384 112.335 94.8497 110.087C88.475 107.499 68.1498 85.4292 62.679 79.9608C56.9185 74.2055 47.1701 67.4304 48.4793 53.543C49.5644 42.0398 59.9725 34.1519 65.5718 28.5703C72.6414 21.5233 78.9783 14.8087 86.1663 7.95313C104.366 -9.40113 132.506 2.96312 126.572 32.2637C173.426 33.8977 203.371 55.109 221.697 81.7736C242.843 112.539 247.601 158.633 229.192 195.245C191.065 271.072 89.8118 275.661 42.6283 217.652C32.462 205.154 23.2574 189.545 18.7029 169.225C16.7442 160.481 14.5311 145.526 17.3081 137.129C23.6375 117.973 51.4023 114.735 61.0651 134.886C66.0753 145.337 58.978 183.105 100.076 203.427C141.507 223.916 182.019 195.63 191.045 163.099C203.842 116.978 164.511 79.0369 135.721 80.5726L135.719 80.5701Z" fill="black"/>
</svg>
