<?xml version="1.0" encoding="UTF-8"?>
<svg fill="none" viewBox="0 0 258 258" xmlns="http://www.w3.org/2000/svg">
<g clip-path="url(#a)">
<path d="m53.177 19.496c-11.698 2.5838-17.65-1.6771-30.375 4.6815-28.797 14.386-22.132 48.97-22.132 80.154v68.273c0 17.896-2.7805 49.793 4.8564 63.417 11.371 20.28 28.106 20.922 47.146 20.917h136.02c24.21 0 41.647 2.775 56.208-11.844 21.419-21.501 8.932-47.927-4.668-35.824-6.339 5.64-0.909 14.58-10.953 23.132-7.003 5.962-18.652 4.463-29.583 4.463h-136.02c-24.399 0-43.022 3.051-43.027-25.093l0.0164-136.56c0-11.589-1.5378-21.433 5.4053-28.72 5.7195-6.0035 16.456-8.2733 27.109-5.9216 0 9.6308-0.4424 19.909 10.436 19.486 10.109-0.3933 9.5571-10.027 9.5571-19.486h45.016c0 9.6308-0.443 19.909 10.436 19.486 10.109-0.3933 9.557-10.027 9.557-19.925l45.516-0.0601c0 5.4518-2.248 20.024 9.996 20.024 12.245 0 9.997-14.572 9.997-20.024 12.116 0 30.061-1.6661 32.725 17.265 1.182 8.4016 0.325 85.003 0.284 100.21-0.022 7.817-0.771 15.943 6.659 18.486 7.098 2.428 12.793-2.816 13.31-9.421 1.076-13.766 0.013-80.654 0.035-100.43 0.019-17.571-4.474-28.138-13.916-36.253-12.141-10.436-20.529-9.9257-39.097-9.9257 0-4.3456 0.768-10.387-0.901-14.148-3.444-7.768-14.75-7.768-18.194 0-1.669 3.7611-0.898 9.8028-0.898 14.178l-45.516-0.5298c0-9.6308 0.443-19.909-10.436-19.486-10.109 0.39331-9.557 10.027-9.563 19.953l-45.012-0.4698c0-9.6307 0.4425-19.909-10.436-19.485-10.109 0.39332-9.557 10.027-9.557 19.485v-0.0054zm107.48 163.16v-23.129h23.042l8e-3 23.123-23.05 9e-3v-3e-3zm-63.815-32.14c1.3602 11.942 21.236 10.584 19.668-2.819-1.428-12.195-21.222-10.824-19.668 2.819zm43.852-42.169c2.887 10.933 22.383 8.082 19.016-5.848-2.715-11.229-22.736-8.2324-19.016 5.848zm-87.013 0c2.8871 10.933 22.386 8.082 19.016-5.848-2.7149-11.229-22.736-8.2324-19.016 5.848zm0 87.348c2.8871 10.934 22.386 8.083 19.016-5.847-2.7149-11.229-22.736-8.233-19.016 5.847zm130.11-89.356c0.352 5.143 5.22 9.374 10.775 8.943 5.231-0.407 9.467-5.144 9.027-10.83-0.975-12.608-20.714-11.371-19.802 1.887zm-87.013 0c0.3551 5.143 5.2198 9.374 10.775 8.943 5.231-0.407 9.467-5.144 9.028-10.83-0.976-12.608-20.715-11.371-19.803 1.887zm0 87.349c0.3551 5.143 5.2198 9.374 10.775 8.942 5.231-0.407 9.467-5.143 9.028-10.829-0.976-12.608-20.715-11.371-19.803 1.887zm-42.923-41.164c3.3897 10.974 22.654 7.279 18.707-6.758-3.2285-11.482-23.096-7.454-18.707 6.758zm86.783 34.136c1.407 7.905 8.227 14.411 16.293 15.697 4.752 0.757 25.781 0.76 30.411-0.098 8.38-1.554 14.331-7.528 15.877-15.94 0.855-4.649 0.852-25.76 0.098-30.531-1.297-8.2-7.738-14.878-15.697-16.356-4.67-0.866-26.136-0.844-30.913-0.06-8.069 1.325-14.818 8.101-16.134 16.194-0.795 4.895-0.801 26.265 0.06 31.094h5e-3z" clip-rule="evenodd" fill="inherit" fill-rule="evenodd"/>
</g>
<defs>
<clipPath id="a">
<rect width="257.15" height="257.15" fill="#fff"/>
</clipPath>
</defs>
</svg>
