<?xml version="1.0" encoding="UTF-8"?>
<svg fill="none" viewBox="0 0 258 258" xmlns="http://www.w3.org/2000/svg">
<path d="m205.01 216.91c7.824-4.435 12.221 6.662 5.614 9.799-6.96 3.304-11.307-6.572-5.614-9.799zm-3.829-194.69c4e-3 -6.815 0.192-12.024 7.181-11.947 6.629 0.0735 6.909 5.456 6.913 11.849l-3.904 0.098h-10.191 1e-3zm-79.388 0c4e-3 -6.7854 0.224-11.947 7.134-11.944 6.795 0.0025 6.956 5.5091 6.961 11.893l-3.933 0.0507h-10.162zm-79.379 0c0.0034-6.5261 0.1723-11.979 7.0456-11.979 6.8631 0 7.0414 5.4585 7.0397 11.979h-14.085zm-10.046 0c-36.837 0-32.181 2.4429-32.181 47.261v160.91c-0.004223 8.147-2.6211 24.962 13.182 26.943 6.5827 0.825 34.123 0.631 39.441-0.623 1.9048-4.266 1.9259-4.119 0.0296-8.42-9.4775-2.223-33.807 1.376-40.591-1.906-4.2784-5.101-2.0163-28.14-2.0163-36.107v-116.66h185.05c5.825 0 21.989 2.8957 21.962-5.0183-0.027-7.7983-15.207-5.0285-20.957-5.0277h-186.05c0-59.072-5.4356-51.3 22.135-51.3 0 14.258-1.577 28.656 11.064 33.171 13.525 4.8309 25.152-6.5802 22.353-19.511-3.6254-1.6582-3.2588-1.6506-7.6909-0.778-2.0256 3.9811-2.8517 15.916-12.604 10.24-5.0614-2.9455-3.0764-16.296-3.0764-23.123l69.337 0.0051c0 14.327-1.571 28.759 11.098 33.19 13.475 4.7142 25.119-6.6698 22.317-19.462-3.611-1.7232-3.163-1.7215-7.689-0.8886-2.428 4.6306-2.915 15.761-12.586 10.327-5.103-2.8678-3.097-16.383-3.097-23.171l69.346 0.0101c0 11.439-2.996 29.029 11.875 33.461 13.827 4.1205 26.187-8.9386 20.724-20.512-13.027-2.8829-4.717 12.333-16.252 11.084-8.973-0.9714-6.305-16.16-6.305-24.044 54.049 0 46.401-5.8927 46.4 25.148 0 28.676 1.452 184.82-1.108 188.06-5.196 4.291-28.084 2.016-36.106 2.016l-114.67-0.031c-4.8105-0.043-13.933-0.049-10.375 7.307 2.2638 4.68 11.843 2.774 16.437 2.77h115.65c9.931 0 28.004 2.362 34.642-3.573 8.091-7.234 5.579-19.777 5.579-32.626v-153.87c0-7.8008 1.151-31.431-1.468-36.766-5.081-10.352-18.383-8.4833-30.841-8.4833-9e-3 -26.723-21.572-25.551-30.036-16.114-4.035 4.4989-4.141 8.6767-4.142 15.989l-45.21 0.1326c-3e-3 -11.3-3.384-21.999-17.025-22.055-5.957-0.024496-10.015 2.6236-13.011 5.9948-4.027 4.531-4.139 8.665-4.142 15.988l-45.201 0.0684c-0.0042-12.792-4.0774-22.05-17.092-22.052-12.985-0.001689-17.086 9.2545-17.09 22.048l-0.0017-0.0025zm198.1 62.067c-6.358 3.3028-1.447 11.523 4.348 8.686 5.515-2.7005 1.552-11.751-4.348-8.686zm-165.82 169.23c0.8388 5.367 10.673 5.728 9.7334-1.84-0.8117-6.543-10.812-5.06-9.7334 1.84zm-35.388-96.457c-3.1726 5.248-1.9402 16.363-1.9689 24.11-0.0457 12.38 5.6611 9.352 17.145 9.352 5.1434 0 23.253 1.196 15.872-8.113-2.6531-3.346-17.431-1.931-22.917-1.931 0-7.608 1.197-18.279-1.92-23.732l-6.2102 0.312v2e-3zm168.13-20.201c4.204 3.503 28.88 2.468 31.055 0.899 4.227-3.049 1.947-8.414-3.946-8.948-5.054-0.459-12.807 9e-3 -18.159 9e-3 0-5.322 2.712-30.565-7.923-23.123-3.457 2.419-2.883 27.348-1.027 31.163zm-56.317 0c4.204 3.503 28.88 2.468 31.055 0.899 4.227-3.049 1.947-8.414-3.946-8.948-5.054-0.459-12.808 9e-3 -18.16 9e-3 0-5.322 2.713-30.565-7.923-23.123-3.456 2.419-2.883 27.348-1.026 31.163zm-56.318 0c4.2032 3.503 28.88 2.468 31.056 0.899 4.226-3.049 1.947-8.414-3.947-8.948-5.054-0.459-12.807 9e-3 -18.159 9e-3 0-5.322 2.7123-30.565-7.9233-23.123-3.4565 2.419-2.8838 27.348-1.0263 31.163zm-56.318 0c4.2032 3.503 28.88 2.468 31.055 0.899 4.2269-3.049 1.9471-8.414-3.9464-8.948-5.0538-0.459-12.807 9e-3 -18.159 9e-3 0-5.322 2.7123-30.565-7.9233-23.123-3.4564 2.419-2.8837 27.348-1.0263 31.163zm97.179 80.088c7.803-4.61 12.269 6.698 5.589 9.792-6.818 3.158-11.299-6.418-5.589-9.792zm43.714-23.475c60.289 0 58.308-4.569 58.308 23.144-7.856-0.232-4.581-4.996-11.692-8.872-4.723-2.574-11.101-2.655-15.879 0.286-2.194 1.35-3.439 2.995-4.954 5.072-2.897 3.971-0.6 3.388-6.762 3.588-6.154 0.198-13.099-0.109-19.399-0.109l0.379-23.11-1e-3 1e-3zm-64.394 22.896c0-15.794-1.768-22.99 15.895-22.915 12.452 0.053 25.489-0.383 38.055 0.116l0.057 22.951-13.944 0.061c-5.222-3.606-4.346-10.693-16.093-10.728-7.701-0.023-13.148 4.829-14.85 10.768l-9.12-0.253zm64.041-55.78c18.153 0 19.35-1.781 23.828 8.928 1.942 4.644 4.23 9.178 5.567 13.893l-29.384 0.02-0.011-22.841zm-39.418 22.841c1.147-4.587 4.071-10.44 5.927-14.848 3.846-9.133 7.078-8.784 23.455-7.798v22.612l-29.382 0.034zm-30.532 8.953c-6.5793 0.132-25.155-2.675-27.345 3.201-3.7546 10.07 16.314 6.908 23.115 6.906l0.0921 14.126c-9.4446 0-18.909 0.06-28.351-0.012-4.0815-0.031-9.6548-0.928-11.576 2.395-2.7106 4.691 0.3227 7.152 4.4735 7.634 13.78 1.6 39.136-0.026 54.188-3e-3 3.122 5.65 6.623 10.814 15.275 10.725 8.341-0.085 12.116-5.32 15.085-10.73l49.048 0.017c7.356 13.889 20.768 15.519 30.403 0.016 4.629 0 9.514 0.128 13.035-1.334 2.695-7.147 1.924-25.952-1.862-32.269-5.026-8.387-12.42-9.328-25.324-9.716-11.841-37.267-17.693-32.799-45.178-32.799-12.481 0-27.002-1.942-33.589 6.029-2.358 2.854-10.361 21.628-11.866 26.505-9.966 1.37-16.121 2.4-19.623 9.305v4e-3z" clip-rule="evenodd" fill="inherit" fill-rule="evenodd"/>
</svg>
