<?xml version="1.0" encoding="UTF-8"?>
<svg fill="none" viewBox="0 0 258 258" xmlns="http://www.w3.org/2000/svg">
<path d="m42.078 24.702c-23.739 4.5527-40.518 23.925-40.761 51.394-0.13146 14.865-0.88784 126.44 0.54207 137.22 1.7541 13.224 7.5367 21.561 15.972 30.055 17.321 17.44 50.481 13.077 79.113 13.077 28.816 0 63.048 1.685 91.202-0.162 24.878-1.634 44.461-20.806 46.735-45.08 1.196-12.772 0.232-72.937 0.306-91.025 0.033-7.924-0.111-14.618-5.766-17.238-7.135-3.3027-13.75 0.283-15.527 5.896-1.578 4.987-0.789 78.941-0.76 90.501 0.039 16.31-3.604 25.291-14.426 31.6-10.452 6.094-108.45 3.454-133.83 3.456-43.266 3e-3 -41.525-14.955-41.525-51.088v-91.179c0-17.017-2.0206-27.802 8.4011-38.134 10.506-10.418 21.087-8.2733 38.132-8.2733h46.09c11.207 0 34.682 2.7391 40.655-4.1133 4.67-5.3558 2.069-13.4-2.116-16.046-5.925-3.7459-58.677-1.891-67.596-1.891-12.671 0-33.318-1.1796-44.846 1.0319h0.0018zm62.882 123.72c3.582 1.203 4.279 3.559 7.515 6.307 2.736 2.323 5.083 3.931 7.305 6.384-3.105 3.78-17.382 8.298-22.9 10.577l8.0823-23.266-2e-3 -2e-3zm15.367-17.112c2.251-3.211 4.029-4.111 6.651-7.117 13.811-15.834 34.129-36.589 46.191-51.041l26.996-29.072c2.461-2.5987 3.974-5.0876 6.472-7.6052 8.329-8.3922 14.965-19.761 24.153-12.077 8.025 6.7119 2.452 13.699-2.643 18.564l-93.128 101.71c-5.992-4.253-9.842-8.178-14.692-13.357zm98.153-130.62c-15.983 3.2956-19.178 12.658-27.858 20.784l-17.082 19.019c-2.06 2.4276-3.836 3.6522-5.968 6.0096-2.12 2.3429-3.409 4.2429-5.471 6.6038l-17.413 18.62c-14.526 17.578-40.169 43.364-57.24 63.03-4.7129 5.429-18.538 46.686-16.701 53.724 1.4515 5.561 6.892 10.591 13.175 11.084 8.1832 0.642 47.868-18.203 51.367-22.001l114.69-125.78c17.643-24.905-3.368-56.892-31.501-51.093v0.001801z" clip-rule="evenodd" fill="inherit" fill-rule="evenodd"/>
</svg>
