<?xml version="1.0" encoding="UTF-8"?>
<svg fill="none" viewBox="0 0 78 78" xmlns="http://www.w3.org/2000/svg">
<path d="m67 42.088v-5.3242c-0.5793-1.0132-0.3979-12.621-12.78-21.06-6.0078-4.094-12.926-5.3828-20.453-4.3789-1.6188 0.2162-5.425 1.1738-6.4323 1.9716 0.3661 0.188 1.0893 0.1677 1.5036 0.2117 0.5305 0.0561 0.96 0.1436 1.4419 0.2091 2.4826 0.337 5.2334 1.2995 7.3577 2.4142 2.9086 1.5251 5.4508 3.6902 7.1735 5.7789 15.079 18.29-2.155 43.588-23.397 38.737-0.814-0.1859-1.7716-0.544-2.6233-0.6356 0.5913 1.2175 4.3491 3.5964 5.942 4.4926 7.7642 4.3675 17.148 4.4896 24.943 1.2218 8.2873-3.473 14.414-10.888 16.51-19.45 0.2102-0.8603 0.5685-3.7344 0.8147-4.1877v-2e-4zm-32.872-9.595c0.2195 0.4429 1.285 2.3197 1.2369 2.6831-0.0767 0.5858-1.1338 1.9089-1.2199 2.562 0.5273-0.1945 2.0375-1.1523 2.4334-1.2328 0.6542-0.1334 1.7914 0.8979 2.6945 1.05-0.2042-0.8172-1.0891-1.9319-1.0813-2.4844 0.0061-0.4866 0.9245-1.7778 1.1001-2.4932-1.0531 0.191-1.9349 1.2237-2.7179 1.062-0.7051-0.1457-1.5883-0.9906-2.4457-1.1467h-1e-4zm-3.7846 18.36c-0.3637-1.0095-2.2356-3.8548-2.2078-4.5105 0.0141-0.3452 1.9039-3.7874 2.2016-4.3677-1.0484 0.2723-3.7119 2.1168-4.3781 2.1824-0.658 0.0652-3.3628-1.8496-4.4225-2.1069 0.2115 1.1458 2.2275 3.8113 2.0821 4.5157-0.0457 0.2264-2.1817 4.1546-2.2709 4.2685 0.7968-0.0494 3.8169-2.1597 4.4968-2.1763 0.7195-0.0176 3.5754 2.0289 4.499 2.1946l-2e-4 2e-4zm-13.185-23.736c-0.7144-0.0077-4.6881-2.7083-5.9745-3.001 0.2177 1.2516 3.1432 5.3996 2.9907 6.1591-0.0559 0.2764-3.1022 5.8567-3.1745 5.9234 0.8968-0.0346 5.3711-3.0422 6.1626-3.0616 0.3411-0.0081 5.5125 2.7952 6.0446 3.0924-0.2003-1.3617-2.9372-5.0968-2.9998-6.0472-0.0551-0.8364 2.7373-4.7048 2.9337-6.0642-1.1543 0.3517-5.3308 3.0061-5.9828 2.9991z" clip-rule="evenodd" fill="inherit" fill-rule="evenodd"/>
</svg>
