<svg width="78" height="78" viewBox="0 0 78 78" fill="none" xmlns="http://www.w3.org/2000/svg">
<path fill-rule="evenodd" clip-rule="evenodd" d="M67 42.0879V36.7637C66.4207 35.7505 66.6021 24.1429 54.2198 15.7034C48.212 11.6094 41.2937 10.3206 33.7664 11.3245C32.1476 11.5407 28.3414 12.4983 27.3341 13.2961C27.7002 13.4841 28.4234 13.4638 28.8377 13.5078C29.3682 13.5639 29.7977 13.6514 30.2796 13.7169C32.7622 14.0539 35.513 15.0164 37.6373 16.1311C40.5459 17.6562 43.0881 19.8213 44.8108 21.91C59.89 40.1997 42.6558 65.4982 21.4135 60.6466C20.5995 60.4607 19.6419 60.1026 18.7902 60.011C19.3815 61.2285 23.1393 63.6074 24.7322 64.5036C32.4964 68.8711 41.8798 68.9932 49.675 65.7254C57.9623 62.2524 64.0895 54.8369 66.1853 46.2758C66.3955 45.4155 66.7538 42.5414 67 42.0881V42.0879ZM34.1283 32.4929C34.3478 32.9358 35.4133 34.8126 35.3652 35.176C35.2885 35.7618 34.2314 37.0849 34.1453 37.738C34.6726 37.5435 36.1828 36.5857 36.5787 36.5052C37.2329 36.3718 38.3701 37.4031 39.2732 37.5552C39.069 36.738 38.1841 35.6233 38.1919 35.0708C38.198 34.5842 39.1164 33.293 39.292 32.5776C38.2389 32.7686 37.3571 33.8013 36.5741 33.6396C35.869 33.4939 34.9858 32.649 34.1284 32.4929H34.1283ZM30.3437 50.8524C29.98 49.8429 28.1081 46.9976 28.1359 46.3419C28.15 45.9967 30.0398 42.5545 30.3375 41.9742C29.2891 42.2465 26.6256 44.091 25.9594 44.1566C25.3014 44.2218 22.5966 42.307 21.5369 42.0497C21.7484 43.1955 23.7644 45.861 23.619 46.5654C23.5733 46.7918 21.4373 50.72 21.3481 50.8339C22.1449 50.7845 25.165 48.6742 25.8449 48.6576C26.5644 48.64 29.4203 50.6865 30.3439 50.8522L30.3437 50.8524ZM17.1583 27.1164C16.4439 27.1087 12.4702 24.4081 11.1838 24.1154C11.4015 25.367 14.327 29.515 14.1745 30.2745C14.1186 30.5509 11.0723 36.1312 11 36.1979C11.8968 36.1633 16.3711 33.1557 17.1626 33.1363C17.5037 33.1282 22.6751 35.9315 23.2072 36.2287C23.0069 34.867 20.27 31.1319 20.2074 30.1815C20.1523 29.3451 22.9447 25.4767 23.1411 24.1173C21.9868 24.469 17.8103 27.1234 17.1583 27.1164V27.1164Z" fill="#002355"/>
</svg>
