<?xml version="1.0" encoding="UTF-8"?>
<svg fill="none" viewBox="0 0 258 258" xmlns="http://www.w3.org/2000/svg">
<path d="m146.04 240.72c19.826-3.507 44.112-16.682 56.317-32.125 52.222-66.071 11.159-148.63-58.11-159.92-16.813-2.7417-35.826 1.561-39.587-4.7181-4.061-6.7851 3.101-11.105 5.604-13.92 4.929-5.5515 2.915-11.513-3.031-14.132-6.458-2.8424-11.033 3.5348-13.81 6.3319l-22.115 22.118c-14.114 14.074-9.3204 13.412 13.686 36.416 3.8495 3.847 7.3969 7.1124 11.038 11.078 1.8656 2.0343 2.996 4.2121 6.4875 4.8088 4.306 0.7377 18.463-2.855 4.311-17.621-3.701-3.8595-4.801-11.226 1.468-13.724 6.1-2.4296 33.673 0.1133 40.476 1.9033 75.608 19.902 80.679 125.64 7.697 152.79-52.778 19.633-97.464-17.147-106.51-59.011-1.0725-4.96-1.216-16.579-2.4119-19.666-3.0867-7.976-27.264-12.91-11.116 35.233 7.4498 22.213 22.767 39.542 38.603 49.854 17.968 11.702 44.462 19.004 71.005 14.311l-2e-3 -3e-3zm-10.32-160.15c-3.009-1.6365-5.315-1.2789-9.62-1.2034l1.601 3.0338c0.051 14.628-2.523 23.17-14.59 27.874-5.682 2.215-12.726 2.061-18.26-0.187-6.3747-2.588-26.7-24.658-32.171-30.126-5.7605-5.7553-15.509-12.53-14.2-26.418 1.0851-11.503 11.493-19.391 17.092-24.973 7.0696-7.047 13.406-13.762 20.594-20.617 18.2-17.354 46.34-4.99 40.406 24.311 46.854 1.634 76.799 22.845 95.125 49.51 21.146 30.765 25.904 76.859 7.495 113.47-38.127 75.827-139.38 80.416-186.56 22.407-10.166-12.498-19.371-28.107-23.925-48.427-1.9587-8.744-4.1718-23.699-1.3948-32.096 6.3294-19.156 34.094-22.394 43.757-2.243 5.0102 10.451-2.0871 48.219 39.011 68.541 41.431 20.489 81.943-7.797 90.969-40.328 12.797-46.121-26.534-84.062-55.324-82.526l-2e-3 -0.0025z" clip-rule="evenodd" fill="#000" fill-rule="evenodd"/>
</svg>
