<?xml version="1.0" encoding="UTF-8"?>
<svg fill="none" viewBox="0 0 124 124" xmlns="http://www.w3.org/2000/svg">
<path d="m55.885 22.218h13.435l-0.0029 4.4147h-13.432v-4.4147zm-13.422 25.905v13.775h40.283l-0.0029-13.775-0.4215-3.3624-3.4742-0.6042-32.33 0.1118c-3.6014 0-4.0535 0.4452-4.0535 3.8548h-2e-4zm0 49.046h40.283l-0.0029-30.857h-40.283l0.0029 30.857zm-20.532 4.8575c-9.4033 2.674-7.1703 13.393-1.7088 18.157 5.7477 5.014 16.623 3.439 25.595 3.439 9.8522 0 50.946 1.533 56.59-1.585 5.514-3.046 11.264-12.534 4.085-18.496-4.047-3.361-20.644-1.958-27.103-1.958-9.2718 0-52.062-1.091-57.458 0.443zm29.484-79.809v4.4147c-9.4651 0-13.553 0.0397-19.833 4.7187-4.3153 3.2152-7.0286 9.4629-7.0315 17.32-0.0055 16.166 0.0077 32.332 0.0077 48.498h13.566c-0.1429-13.593-0.1429-27.186-0.1429-40.78 0-18.802-1.1356-16.536 24.622-16.536 25.736 0 24.622-2.2778 24.622 16.536v40.78h13.391c0.032-16.166 0.049-32.332 0.039-48.498-4e-3 -7.8426-2.7294-14.119-7.0279-17.324-6.274-4.6776-10.388-4.7152-19.837-4.7152v-4.4147c11.694 0 10.421-5.2734 8.1024-14.606-2.3394-9.415-6.1337-7.4334-19.29-7.4334-12.931 0-17.016-2.0073-19.295 7.4321-2.2528 9.33-3.6453 14.607 8.1078 14.607v5e-4z" clip-rule="evenodd" fill="inherit" fill-rule="evenodd"/>
</svg>
