<?xml version="1.0" encoding="UTF-8"?>
<svg fill="none" viewBox="0 0 124 124" xmlns="http://www.w3.org/2000/svg">
<path d="m55.889 22.218h13.436l-3e-3 4.4147h-13.433v-4.4147zm11.75 58.669c0.1309-8.4291 6.0979-14.561 14.416-14.964-1.1425 7.0404-7.5737 13.572-14.416 14.964zm-5.9372-20.68c-5.2557 1.5018-2.8632 8.8545 2.0602 7.4982 4.9659-1.3682 2.8434-8.8993-2.0602-7.4982zm-18.396 5.7163c8.3272 0.4037 14.276 6.5425 14.415 14.964-6.8102-1.374-13.292-7.9225-14.415-14.964zm18.306-7.7268c3.5656-0.6674 6.3866 1.777 6.9159 4.6437 0.6693 3.6254-1.8346 6.3268-4.7038 6.8557-7.8289 1.4431-9.9701-10.047-2.2121-11.499zm-17.802-2.0606c0.9644-3.9402 4.2645-7.8054 6.6832-9.5592 13.023-9.4438 28.442-1.0693 31.056 9.5616l-6.5632 6e-4c-2.8004-4.9246-5.6115-3.9083-12.306-3.9083-6.6773-1e-4 -9.5102-1.0089-12.306 3.9086l-6.5631-0.0033zm-8.8664 7.33c0.7266 14.605 13.444 26.663 29.234 25.847 14.818-0.7652 27.08-13.188 26.229-28.788-0.7959-14.594-13.425-26.625-29.218-25.839-14.849 0.7389-27.019 13.231-26.245 28.78zm3.182 33.704h62.537v-30.312c3e-3 -6.0624 4e-3 -12.125 0-18.187-4e-3 -7.8426-2.73-14.119-7.0289-17.324-6.2746-4.6777-10.389-4.7152-19.838-4.7152v-4.4147c11.695 0 10.422-5.2733 8.1031-14.606-2.3396-9.4152-6.1343-7.4333-19.291-7.4333-12.932 0-17.018-2.0073-19.297 7.4321-2.253 9.33-3.6456 14.607 8.1085 14.607v4.4147c-9.4661 0-13.554 0.0396-19.835 4.7187-4.3157 3.2152-7.0293 9.463-7.032 17.32-0.0054 15.913 0.0072 31.827 0.0076 47.74v0.7577h13.567v1e-4zm-16.194 4.8575c-9.4041 2.674-7.171 13.393-1.7088 18.157 5.7481 5.014 16.624 3.439 25.597 3.439 9.8531 0 50.95 1.533 56.595-1.585 5.514-3.046 11.265-12.534 4.085-18.496-4.047-3.361-20.646-1.958-27.105-1.958-9.2727 0-52.066-1.091-57.463 0.443z" clip-rule="evenodd" fill="inherit" fill-rule="evenodd"/>
</svg>
