<?xml version="1.0" encoding="UTF-8"?>
<svg fill="none" viewBox="0 0 31 32" xmlns="http://www.w3.org/2000/svg">
<path d="m15.438 24.289c4.3427-0.0107 8.0476-3.7198 8.0683-8.2899 0.021-4.4908-3.6741-8.2861-8.1316-8.2892-2.616 0.00718-4.6803 1.047-5.9818 2.3708-1.3182 1.3413-2.4782 3.2927-2.4702 5.9187 0.01359 4.7541 3.7494 8.3015 8.5154 8.2897l-1e-4 -1e-4zm-1.0242-17.912c1.2824-0.18476 3.144 0.14012 4.1761 0.55992 9.6242 3.9139 7.7697 17.6-2.6138 18.696-3.0667 0.3238-5.5519-1.0186-7.1914-2.4106-1.7297-1.4681-2.9036-3.6757-3.2205-6.4271-0.44367-3.8495 1.9346-7.6466 5.0871-9.3255 1.4842-0.79066 2.1915-0.86691 3.7626-1.0933v1.1e-4zm-8.6101-3.322c-0.03592 1.2716 1.8387 3.8907 0.14222 6.1846-1.579 2.1344-3.6688 1.4882-5.946 1.8079 0.20068 0.2549 1.9451 1.6484 2.3382 1.9736 0.75441 0.6247 1.3972 1.6687 1.4027 2.9123 0.01016 2.1113-1.2075 2.8742-2.5193 3.9637-0.34919 0.2904-0.89453 0.6811-1.1754 0.9963 0.19217 0.154 1.4762 0.1791 1.791 0.1949 0.52821 0.0263 1.3593 0.0294 1.8139 0.1548 2.1621 0.5964 3.3648 2.4392 2.9146 4.6294-0.11448 0.555-0.26267 1.0245-0.40046 1.5644-0.0936 0.3645-0.34489 1.1751-0.36544 1.5147 1.2466-0.4287 3.3358-3.0609 6.0464-1.9827 2.6147 1.0401 2.4257 3.679 3.3872 5.0317 0.4117-0.975 0.7634-2.0211 1.2-2.9947 0.9445-2.1072 3.4111-2.9303 5.5586-1.7012 0.4665 0.2671 2.2515 1.526 2.6156 1.6081-0.1447-1.7775-1.7327-3.826-0.1245-6.1573 1.2842-1.8628 3.2436-1.567 5.9209-1.7682-0.1249-0.6822-3.6861-1.9939-3.7182-4.9225-0.0337-3.0428 3.3067-4.0983 3.7055-5.0306-2.2232-0.2849-4.4977 0.2582-5.9349-1.8306-1.5882-2.3088 0.0634-4.5906 0.1724-6.1444-0.214 0.04089-2.186 1.3552-2.5958 1.6119-0.9288 0.58103-2.1799 0.82624-3.3995 0.37328-1.7871-0.66391-2.2494-2.0335-2.797-3.5548-0.1576-0.43649-0.3953-1.0891-0.6052-1.489-0.8452 1.0499-0.7754 4.0801-3.4329 5.0456-2.829 1.0275-4.7471-1.6473-5.9946-1.991l-1.1e-4 -2.2e-4z" clip-rule="evenodd" fill="inherit" fill-rule="evenodd"/>
</svg>
